<svg xmlns="http://www.w3.org/2000/svg" shape-rendering="geometricPrecision" text-rendering="geometricPrecision" image-rendering="optimizeQuality" fill-rule="evenodd" clip-rule="evenodd" viewBox="0 0 511.946 486.721"><g fill-rule="nonzero"><path fill="#219153" stroke="#219153" stroke-width=".288" stroke-miterlimit="22.926" d="M263.72 12.916c.317-3.835 2.125-7.165 4.831-9.455 2.634-2.259 6.167-3.514 9.899-3.274l.002-.036c.318.018.633.071.948.123a13.864 13.864 0 018.648 4.716c2.26 2.634 3.516 6.131 3.274 9.9l.036.001a4.434 4.434 0 01-.074.704l-2.357 29.454.035.002c-.018.318-.071.633-.123.947a13.78 13.78 0 01-4.716 8.648 13.893 13.893 0 01-9.899 3.274l-.002.036a8.448 8.448 0 01-.948-.123 13.77 13.77 0 01-8.648-4.716 13.89 13.89 0 01-3.274-9.899l-.036-.003c.013-.245.027-.492.074-.701l2.33-29.598zM158.915 482.9C53.117 496.122-19.433 443.755 4.828 293.107c78.278 33.604 192.825 30.465 170.807 172.119-.337 2.125-.646 3.98-.979 5.6C135.902 417.18 69.19 387.04 35.088 341.386c35.253 82.925 68.847 101.214 125.505 141.066a49.56 49.56 0 01-1.678.448zm190.115.736c105.361 16.34 179.427-33.862 159.625-185.161-79.236 31.278-193.641 24.758-175.815 167.001.274 2.134.528 3.997.814 5.626 40.32-52.479 107.893-80.634 143.328-125.262-37.687 81.848-71.805 99.137-129.615 137.299.553.176 1.109.342 1.663.497zM100.668 60.014a13.945 13.945 0 01-3.877-9.862 13.807 13.807 0 014.208-9.701 13.937 13.937 0 019.861-3.877 13.806 13.806 0 019.702 4.208l21 21.828a13.939 13.939 0 013.876 9.863 13.743 13.743 0 01-4.208 9.7 13.938 13.938 0 01-9.861 3.878 13.74 13.74 0 01-9.701-4.209l-21-21.828zM56.135 210.122c-3.739-.136-7.079-1.767-9.486-4.267a13.93 13.93 0 01-3.841-9.896 13.684 13.684 0 014.279-9.696c2.573-2.439 6.046-3.91 9.894-3.806l30.255.635a13.687 13.687 0 019.698 4.278c2.439 2.574 3.909 6.046 3.805 9.893l-.012.212.036.002-.063.492c-.266 3.555-1.851 6.684-4.24 8.992-2.572 2.439-6.044 3.875-9.893 3.805l-.212-.012-.001.035-.318-.017-29.901-.65zm398.677-21.931l.461-.01a13.818 13.818 0 019.382 3.59c2.627 2.37 4.312 5.785 4.529 9.579l-.008.141c.035.003.013.39.01.46a13.813 13.813 0 01-3.59 9.382c-2.371 2.627-5.786 4.312-9.579 4.529l-30.234 1.523a13.767 13.767 0 01-9.947-3.585 13.806 13.806 0 01-4.529-9.58 13.805 13.805 0 013.586-9.948 13.804 13.804 0 019.579-4.529c10.102-.541 20.245-1.151 30.34-1.552zM401.891 64.655c2.323-3.055 5.603-4.853 9.095-5.369 3.491-.48 7.156.358 10.246 2.648l.034.036a13.673 13.673 0 015.369 9.096c.48 3.49-.358 7.156-2.648 10.246l-18.188 24.204c-2.288 3.055-5.604 4.888-9.132 5.402-3.49.48-7.155-.357-10.246-2.647-3.056-2.289-4.887-5.641-5.402-9.133-.48-3.491.357-7.156 2.647-10.247l18.225-24.236z"/><path fill="#1A1A1A" d="M301.155 410.731c-6.11 9.262-14.21 16.302-23.278 20.902-16.177 8.306-35.464 8.659-51.511-.163-5.434-3.053-10.445-7.139-14.798-12.337l89.587-8.402zm-1.588-256.144c2.769-.06 5.596.411 8.335 1.34 5.176 1.751 10.174 5.182 14.02 9.736 3.865 4.578 6.628 10.341 7.326 16.735a29.371 29.371 0 01-.474 9.322c2.906 2.579 5.313 5.49 7.13 8.596 2.75 4.708 4.186 9.927 4.036 15.233-.151 5.339-1.918 10.688-5.553 15.609-2.322 3.148-5.406 6.114-9.308 8.767.394 8.252-2.028 15.663-5.971 21.374-4.427 6.414-10.852 10.757-17.494 11.923-1.416 5.824-5.259 10.959-10.22 14.517-6.185 4.437-14.27 6.515-21.63 4.498-5.503-1.51-10.509-5.179-13.909-11.67-4.147 7.13-9.879 10.884-15.883 12.13-7.134 1.484-14.51-.701-20.06-5.021-4.521-3.518-7.902-8.516-9.045-14.16-2.349-.086-4.721-.54-7.036-1.326-5.052-1.707-9.936-5.025-13.752-9.435-3.819-4.41-6.612-9.966-7.478-16.144a29.33 29.33 0 01.361-10.218c-2.566-2.291-4.754-4.884-6.474-7.68-2.894-4.702-4.498-10.021-4.434-15.503.063-5.506 1.814-11.089 5.613-16.264 2.245-3.061 5.222-5.981 8.998-8.654a37.293 37.293 0 01-.021-3.187c.301-8.042 3.264-15.125 7.587-20.404 4.458-5.466 10.462-9.064 16.623-9.92l.04-.003c.22-1.006.514-1.998.872-2.967 1.995-5.413 6.097-10.027 11.136-12.957 5.058-2.947 11.142-4.24 17.07-3.01 5.716 1.189 11.182 4.648 15.275 11.129 4.093-6.481 9.562-9.943 15.279-11.133 5.388-1.119 10.915-.146 15.679 2.255 4.698 2.37 8.717 6.178 11.183 10.752a22.86 22.86 0 012.179 5.74zM170.852 307.444c-17.927-22.898-30.368-42.937-35.634-72.476-3.549-19.917-2.184-39.494 3.96-58.769 7.645-23.989 19.934-43.156 39.965-58.814 17.888-13.985 39.406-22.141 61.958-24.113 19.851-1.736 40.112 1.292 58.703 8.417 21.095 8.084 40.152 21.504 54.186 39.28 22.242 28.173 29.81 66.211 21.268 101.039l-.006.023c-1.962 8.023-4.85 16.266-8.811 24.69-13.119 27.968-38.017 52.18-55.997 77.606a6.41 6.41 0 01-5.1 2.724l-105.251 9.483a6.408 6.408 0 01-6.727-4.675c-4.311-15.566-12.57-31.697-22.514-44.415zm10.1-7.889c10.014 12.806 18.207 28.267 23.226 43.747l97.499-8.783c17.005-23.454 41.105-47.535 53.155-73.225 3.566-7.585 6.175-15.041 7.963-22.327 7.599-30.905.913-65.016-18.855-90.057-12.623-15.988-29.747-27.944-48.708-35.21-16.822-6.446-35.063-9.186-53.026-7.615-20.097 1.759-39.216 8.923-55.174 21.4-17.879 13.976-28.818 31.165-35.643 52.584-5.508 17.28-6.689 34.834-3.507 52.687 4.889 27.437 16.46 45.583 33.07 66.799zm80.409-141.51V264.93c.488.648.832 1.42.969 2.275 1.537 9.325 5.586 13.825 10.147 15.075 4.196 1.15 9.037-.196 12.89-2.96 3.779-2.709 6.485-6.696 6.522-10.868.043-4.751-3.442-10.141-12.753-14.895a5.16 5.16 0 014.697-9.188c10.33 5.275 15.68 11.767 17.568 18.295 3.411-1.062 6.722-3.631 9.208-7.232 3.063-4.441 4.81-10.415 3.975-17.103a5.182 5.182 0 012.453-5.573c4.032-2.356 7.016-4.996 9.051-7.752 2.318-3.137 3.441-6.472 3.535-9.736.093-3.295-.855-6.632-2.666-9.733-1.651-2.822-4.003-5.432-6.93-7.627a5.18 5.18 0 01-2.021-5.96c.992-2.931 1.256-5.784.965-8.454-.461-4.209-2.326-8.058-4.942-11.156-2.632-3.116-6-5.448-9.448-6.615-1.807-.615-3.618-.892-5.302-.775-.885 3.064-2.516 6.154-5.045 9.158a5.156 5.156 0 01-7.891-6.635c4.022-4.775 4.052-9.793 1.938-13.726-1.457-2.706-3.883-4.985-6.733-6.421-2.783-1.403-5.937-1.985-8.917-1.367-4.371.909-8.601 4.531-11.27 12.088zm26.368 35.039a5.157 5.157 0 016.067-8.339 37.906 37.906 0 012.967 2.395c6.889 6.198 10.641 14.383 11.33 22.853.684 8.382-1.654 17.052-6.94 24.32a37.315 37.315 0 01-2.539 3.11 5.16 5.16 0 01-7.651-6.923 26.701 26.701 0 001.811-2.256c3.806-5.231 5.49-11.445 5.001-17.443-.478-5.91-3.107-11.634-7.914-15.97a24.196 24.196 0 00-2.132-1.747zm-36.738-29.643l-.031-.046h-.003l-.03-.048-.094-.146-.007-.017-.214-.387-.019-.048-.007-.006-.023-.05-.074-.171-.02-.046-.024-.054-.003-.013-.017-.04-.063-.167-.007-.027-.01-.03-.026-.09-.01-.023-.017-.057-.01-.041-.006-.019-.017-.057-.01-.044-.007-.013-.014-.061-.01-.046c-2.489-10.063-7.333-14.687-12.351-15.733-3.295-.685-6.8.104-9.787 1.84-3.016 1.755-5.452 4.458-6.598 7.572-1.53 4.153-.628 9.271 4.557 14.072a5.162 5.162 0 01.284 7.287 5.162 5.162 0 01-7.287.284c-4.093-3.788-6.571-7.811-7.765-11.814-3.241.742-6.461 2.897-9.041 6.044-3.006 3.645-5.058 8.583-5.269 14.226a27.245 27.245 0 00.251 4.708 5.18 5.18 0 01-2.406 5.098c-3.889 2.396-6.786 5.038-8.8 7.782-2.463 3.354-3.595 6.872-3.635 10.27-.04 3.422 1.022 6.846 2.937 9.956 1.607 2.613 3.812 4.992 6.461 6.96a5.178 5.178 0 011.965 5.92c-1.062 3.138-1.293 6.194-.895 9.028.575 4.087 2.462 7.815 5.051 10.805 2.6 3.005 5.891 5.256 9.262 6.396 1.424.481 2.843.757 4.21.798 2.028-6.699 7.587-13.405 18.195-18.824a5.162 5.162 0 016.943 2.245 5.163 5.163 0 01-2.245 6.943c-9.803 5.005-13.495 10.778-13.488 15.81.003 3.916 2.242 7.601 5.499 10.137 3.312 2.58 7.595 3.909 11.601 3.077 5.025-1.046 9.875-5.684 12.361-15.78.154-.628.415-1.2.763-1.701V163.441zm-38.397 24.768a5.167 5.167 0 017.304.06 5.168 5.168 0 01-.06 7.303c-4.564 4.488-6.95 10.294-7.197 16.221-.251 6.108 1.735 12.379 5.904 17.551a5.17 5.17 0 01-.788 7.264 5.17 5.17 0 01-7.264-.789c-5.774-7.163-8.523-15.893-8.169-24.434.351-8.479 3.755-16.771 10.27-23.176zm99.758 173.27l-.228 5.819.027 2.022a79.764 79.764 0 01-.49 11.452l-2.2 8.282-108.553 10.117-1.641-4.406L196 377.32l.182-4.995 116.17-10.846z"/></g></svg>